<svg xmlns="http://www.w3.org/2000/svg" width="102.908" height="83.141"><defs><linearGradient id="a" x1=".5" x2=".5" y2="1" gradientUnits="objectBoundingBox"><stop offset="0" stop-color="#485ef4" stop-opacity=".102"/><stop offset=".03" stop-color="#48e7f4"/><stop offset="1" stop-color="#fff" stop-opacity=".482"/></linearGradient></defs><g data-name="Group 115"><g data-name="Group 114"><path data-name="Path 626" d="M-2.932 31.462l61.289-25.6L99.977 89H0z" transform="translate(2.932 -5.859)" fill="url(#a)"/></g><path data-name="Path 621" d="M32.93 15.141a31.748 31.748 0 1 0 31.752 31.748A31.783 31.783 0 0 0 32.93 15.141zm1.536 47.943v5.5h-3.329v-5.343a15.365 15.365 0 0 1-8.085-2.328l1.264-3.535a14.192 14.192 0 0 0 7.62 2.274c3.749 0 6.28-2.174 6.28-5.182 0-2.912-2.059-4.7-5.969-6.292-5.388-2.114-8.726-4.545-8.726-9.134 0-4.39 3.111-7.716 7.985-8.512v-5.337h3.276v5.125a14.1 14.1 0 0 1 6.867 1.85l-1.324 3.489a12.759 12.759 0 0 0-6.658-1.8c-4.07 0-5.6 2.434-5.6 4.545 0 2.745 1.956 4.121 6.549 6.026 5.439 2.216 8.185 4.974 8.185 9.67.007 4.182-2.892 8.089-8.335 8.984z" fill="#000945"/></g></svg>