<svg xmlns="http://www.w3.org/2000/svg" width="103.734" height="100.285"><defs><linearGradient id="a" x1=".5" x2=".5" y2="1" gradientUnits="objectBoundingBox"><stop offset="0" stop-color="#485ef4" stop-opacity=".102"/><stop offset=".03" stop-color="#48e7f4"/><stop offset="1" stop-color="#fff" stop-opacity=".482"/></linearGradient><linearGradient id="b" x1=".827" y1=".142" x2=".177" y2=".835" gradientUnits="objectBoundingBox"><stop offset="0" stop-color="#0054e1"/><stop offset="1" stop-color="#0095fd"/></linearGradient></defs><path data-name="Path 634" d="M-3.758-11.285L99.977 4.595V89H0z" transform="translate(3.758 11.285)" fill="url(#a)"/><g data-name="Group 107"><g data-name="Group 110"><path data-name="Path 617" d="M24.064 68.738a12.893 12.893 0 1 0-12.893-12.894 12.907 12.907 0 0 0 12.893 12.894z" fill="#000945"/><path data-name="Path 618" d="M24.064 69.458c-9.593 0-17.4 10.751-17.4 23.967a1.306 1.306 0 1 0 2.611 0c0-11.775 6.635-21.356 14.788-21.356s14.788 9.581 14.788 21.356a1.306 1.306 0 1 0 2.611 0 29.056 29.056 0 0 0-5.004-16.83c-3.3-4.603-7.7-7.137-12.394-7.137z" fill="#000945"/><path data-name="Path 619" d="M64.177 32.66a12.893 12.893 0 1 0-12.894-12.894A12.906 12.906 0 0 0 64.177 32.66z" transform="translate(-6.482 16.41)" fill="url(#b)"/><path data-name="Path 620" d="M57.69 49.791c-9.594 0-17.4 10.751-17.4 23.967a1.306 1.306 0 1 0 2.611 0c0-11.775 6.634-21.356 14.788-21.356s14.793 9.581 14.793 21.355a1.306 1.306 0 1 0 2.611 0C75.09 60.542 67.29 49.791 57.69 49.791z" fill="#000945"/></g></g></svg>