<svg xmlns="http://www.w3.org/2000/svg" width="122.178" height="85.9"><defs><linearGradient id="a" x1=".5" x2=".5" y2="1" gradientUnits="objectBoundingBox"><stop offset="0" stop-color="#485ef4" stop-opacity=".102"/><stop offset=".03" stop-color="#48e7f4"/><stop offset="1" stop-color="#fff" stop-opacity=".482"/></linearGradient><linearGradient id="b" x1=".5" x2=".5" y2="1" gradientUnits="objectBoundingBox"><stop offset="0" stop-color="#006cff"/><stop offset="1" stop-color="#0c64f2"/></linearGradient></defs><g data-name="Group 113"><path data-name="Path 625" d="M18.553 3.509l79.4 6.161L120.178 89H0z" transform="translate(2 -3.509)" fill="url(#a)"/><g data-name="Group 108"><path data-name="Exclusion 2" d="M21955.586-10811.487h-7.66v-6.006a17.892 17.892 0 0 1-6.012-2.493l-4.246 4.247-5.416-5.416 4.246-4.247a18.03 18.03 0 0 1-2.5-6.017h-6v-7.655h6a18.059 18.059 0 0 1 2.5-6.011l-4.246-4.253 5.416-5.41 4.246 4.247a18.039 18.039 0 0 1 6.012-2.5v-6h7.66v6a18.046 18.046 0 0 1 6.012 2.5l4.246-4.247 5.416 5.41-4.246 4.247a17.931 17.931 0 0 1 2.492 6.017h6.006v7.655h-6.006a17.879 17.879 0 0 1-2.492 6.017l4.246 4.247-5.416 5.416-4.246-4.247a17.9 17.9 0 0 1-6.012 2.493v6zm-3.832-33.576a9.741 9.741 0 0 0-6.939 2.876 9.75 9.75 0 0 0-2.873 6.941 9.75 9.75 0 0 0 2.873 6.94 9.748 9.748 0 0 0 6.939 2.876 9.753 9.753 0 0 0 6.943-2.876 9.75 9.75 0 0 0 2.873-6.94 9.75 9.75 0 0 0-2.873-6.941 9.753 9.753 0 0 0-6.943-2.876z" transform="translate(-21928 10872.491)" fill="url(#b)"/><path data-name="Exclusion 1" d="M72.945 85.401h-7.654v-6.006a17.882 17.882 0 0 1-6.018-2.493l-4.246 4.247-5.416-5.416 4.246-4.247a17.914 17.914 0 0 1-2.492-6.017h-6.004v-7.655h6a18.048 18.048 0 0 1 2.492-6.017l-4.246-4.247 5.416-5.41 4.246 4.247a17.906 17.906 0 0 1 6.018-2.5v-6h7.654v6a18.046 18.046 0 0 1 6.012 2.5l4.246-4.247 5.416 5.41-4.246 4.247a17.914 17.914 0 0 1 2.492 6.017h6.006v7.655h-6.006a17.948 17.948 0 0 1-2.492 6.017l4.246 4.247-5.41 5.416-4.252-4.247a17.9 17.9 0 0 1-6.012 2.493v6zm-3.832-33.57a9.822 9.822 0 0 0-9.812 9.812 9.753 9.753 0 0 0 2.873 6.943 9.746 9.746 0 0 0 6.939 2.873 9.759 9.759 0 0 0 6.943-2.873 9.753 9.753 0 0 0 2.873-6.943 9.746 9.746 0 0 0-2.873-6.937 9.752 9.752 0 0 0-6.943-2.876z" fill="#000945" stroke="#000945"/></g></g></svg>