<svg xmlns="http://www.w3.org/2000/svg" width="26.454" height="42.485"><g data-name="Group 8" transform="rotate(90 13.227 13.227)"><circle data-name="Ellipse 7" cx="5.212" cy="5.212" r="5.212" transform="translate(16.031 16.031)"/><circle data-name="Ellipse 8" cx="1.955" cy="1.955" r="1.955" transform="translate(8.922 19.288)"/><circle data-name="Ellipse 9" cx="1.955" cy="1.955" r="1.955" transform="translate(0 19.288)"/><circle data-name="Ellipse 10" cx="1.955" cy="1.955" r="1.955" transform="translate(29.654 19.288)"/><circle data-name="Ellipse 11" cx="1.955" cy="1.955" r="1.955" transform="translate(38.576 19.288)"/><circle data-name="Ellipse 12" cx="1.955" cy="1.955" r="1.955" transform="translate(19.288)"/><circle data-name="Ellipse 13" cx="1.955" cy="1.955" r="1.955" transform="translate(19.288 8.014)"/><circle data-name="Ellipse 14" cx="1.955" cy="1.955" r="1.955" transform="translate(26.979 11.597)"/><circle data-name="Ellipse 15" cx="1.955" cy="1.955" r="1.955" transform="translate(11.532 11.597)"/><circle data-name="Ellipse 16" cx="1.955" cy="1.955" r="1.955" transform="translate(5.929 5.02)"/><circle data-name="Ellipse 17" cx="1.955" cy="1.955" r="1.955" transform="translate(33.556 5.929)"/><circle data-name="Ellipse 18" cx="1.955" cy="1.955" r="1.955" transform="translate(1.564 11.535)"/><circle data-name="Ellipse 19" cx="1.955" cy="1.955" r="1.955" transform="translate(37.013 11.535)"/><circle data-name="Ellipse 20" cx="1.955" cy="1.955" r="1.955" transform="translate(11.535 1.498)"/><circle data-name="Ellipse 21" cx="1.955" cy="1.955" r="1.955" transform="translate(27.041 1.498)"/></g></svg>