<svg xmlns="http://www.w3.org/2000/svg" width="233.788" height="107.192"><path data-name="Path 549" d="M17.77 52.978C17.511 27.861 77.065 4.232 128.419 8.453c51.308 4.216 90.532 23.914 88.532 49.241-1.967 24.894-50.671 41.2-99.016 41.557-23.739.176-49.774-2.7-70.584-8.2-12.136-3.21-21.794-8.323-26.231-14.643-4.709-6.711-2.6-14.534-5.029-21.5C14.335 49.861-1.613 52.006.133 57.01c2.742 7.87 1.065 15.856 6.439 23.517 4.5 6.415 15.008 11.444 26.007 15.4 23.1 8.3 57.19 11.1 85.357 11.261 37.423.219 71.921-8.167 93.6-21.739 12.265-7.68 20.331-17.212 21.973-27.752 4.626-29.689-48.19-54.013-107.366-57.4C66.336-3.139.919 23.947 1.217 52.978c.055 5.115 16.608 5.118 16.553 0z" fill="#ffd64d"/></svg>