<svg xmlns="http://www.w3.org/2000/svg" width="139.525" height="74.198"><defs><linearGradient id="a" x1=".5" x2=".5" y2="1" gradientUnits="objectBoundingBox"><stop offset="0" stop-color="#485ef4" stop-opacity=".102"/><stop offset=".03" stop-color="#48e7f4"/><stop offset="1" stop-color="#fff" stop-opacity=".482"/></linearGradient><linearGradient id="b" x1=".5" x2=".5" y2="1" gradientUnits="objectBoundingBox"><stop offset="0" stop-color="#004df2"/><stop offset="1" stop-color="#0096ff"/></linearGradient></defs><g data-name="Group 116"><path data-name="Path 633" d="M77.347 62.741l27.13-28.241 72.77 73.95H37.721z" transform="translate(-37.721 -34.498)" fill="url(#a)"/><g data-name="Group 5" transform="translate(13.859 33.596)"><ellipse data-name="Ellipse 4" cx="9.469" cy="9.469" rx="9.469" ry="9.469" transform="translate(0 21.163)" fill="#000945" stroke="#000945"/><ellipse data-name="Ellipse 5" cx="9.469" cy="9.469" rx="9.469" ry="9.469" transform="translate(35.531 21.163)" fill="url(#b)"/><path data-name="Path 23" d="M26.44 1.5a16.189 16.189 0 0 0-16.221 16.118h-1.5a17.73 17.73 0 0 1 34.9-4.3l2.729-5.3 1.332.687-3.6 7a.75.75 0 0 1-1.01.324l-7-3.606.687-1.333 5.473 2.819A16.291 16.291 0 0 0 26.44 1.5z" fill="#000945"/><ellipse data-name="Ellipse 6" cx="9.469" cy="9.469" rx="9.469" ry="9.469" transform="translate(71.062 21.163)" fill="#000945"/><path data-name="Path 24" d="M61.972 1.501a16.147 16.147 0 0 0-9.844 3.3l-.9-1.194A17.615 17.615 0 0 1 61.972.001a17.8 17.8 0 0 1 17.182 13.323l2.729-5.3 1.333.687-3.606 7a.75.75 0 0 1-1.01.324l-7-3.606.686-1.334 5.473 2.819A16.287 16.287 0 0 0 61.972 1.501z" fill="#000945"/></g></g></svg>