<svg xmlns="http://www.w3.org/2000/svg" width="77.713" height="65.349"><defs><linearGradient id="a" x1=".5" x2=".5" y2="1" gradientUnits="objectBoundingBox"><stop offset="0" stop-color="#485ef4" stop-opacity=".102"/><stop offset=".03" stop-color="#48e7f4"/><stop offset="1" stop-color="#fff" stop-opacity=".482"/></linearGradient><linearGradient id="b" x1=".827" y1=".142" x2=".177" y2=".835" gradientUnits="objectBoundingBox"><stop offset="0" stop-color="#0054e1"/><stop offset="1" stop-color="#0095fd"/></linearGradient></defs><g transform="translate(-.73 -7.055)"><path data-name="Path 637" d="M58.768 42.148l48 10.794 14.257 53.638-77.713.918z" transform="translate(-42.58 -35.094)" fill="url(#a)"/><path data-name="Path 20" d="M42.654 18.054a24.6 24.6 0 1 0 24.59 24.6 24.595 24.595 0 0 0-24.59-24.6zm0 42.163a17.568 17.568 0 1 1 17.563-17.563 17.568 17.568 0 0 1-17.563 17.563z" fill="none"/><path data-name="Path 21" d="M47 36a11 11 0 1 0 11 11 11 11 0 0 0-11-11zm0 14.667A3.667 3.667 0 1 1 50.667 47 3.667 3.667 0 0 1 47 50.667z" transform="translate(-4.001 -4)" fill="url(#b)"/><g data-name="Ellipse 98" transform="translate(24 24)" fill="none" stroke="#000945"><circle cx="19" cy="19" r="19" stroke="none"/><circle cx="19" cy="19" r="18.5"/></g><circle data-name="Ellipse 99" cx="4" cy="4" r="4" transform="translate(39 39)" fill="#000945"/><g data-name="Ellipse 100" transform="translate(15 15)" fill="none" stroke="#000945"><circle cx="28" cy="28" r="28" stroke="none"/><circle cx="28" cy="28" r="27.5"/></g></g></svg>