<svg xmlns="http://www.w3.org/2000/svg" xmlns:xlink="http://www.w3.org/1999/xlink" width="102.908" height="83.141" viewBox="0 0 102.908 83.141">
  <defs>
    <linearGradient id="linear-gradient" x1="0.5" x2="0.5" y2="1" gradientUnits="objectBoundingBox">
      <stop offset="0" stop-color="#485ef4" stop-opacity="0.102"/>
      <stop offset="0.03" stop-color="#48e7f4"/>
      <stop offset="1" stop-color="#fff" stop-opacity="0.482"/>
    </linearGradient>
  </defs>
  <g id="Group_115" data-name="Group 115" transform="translate(-437.068 -2293.859)">
    <g id="Group_114" data-name="Group 114" transform="translate(744.907 2304)">
      <path id="Path_626" data-name="Path 626" d="M-2.932,31.462l61.289-25.6L99.977,89H0Z" transform="translate(-304.907 -16)" fill="url(#linear-gradient)"/>
    </g>
    <g id="noun_currency_2113807" transform="translate(415.75 2314.5)">
      <path id="Path_621" data-name="Path 621" d="M33.248,1.5A31.748,31.748,0,1,0,65,33.248,31.783,31.783,0,0,0,33.248,1.5Zm1.536,47.943v5.5H31.455V49.6a15.365,15.365,0,0,1-8.085-2.328l1.264-3.535a14.192,14.192,0,0,0,7.62,2.274c3.749,0,6.28-2.174,6.28-5.182,0-2.912-2.059-4.7-5.969-6.292-5.388-2.114-8.726-4.545-8.726-9.134,0-4.39,3.111-7.716,7.985-8.512V11.554H35.1v5.125a14.1,14.1,0,0,1,6.867,1.85l-1.324,3.489a12.759,12.759,0,0,0-6.658-1.8c-4.07,0-5.6,2.434-5.6,4.545,0,2.745,1.956,4.121,6.549,6.026,5.439,2.216,8.185,4.974,8.185,9.67C43.126,44.641,40.227,48.548,34.784,49.443Z" transform="translate(21 -7)" fill="#000945"/>
    </g>
  </g>
</svg>
