<svg xmlns="http://www.w3.org/2000/svg" xmlns:xlink="http://www.w3.org/1999/xlink" width="103.734" height="100.285" viewBox="0 0 103.734 100.285">
  <defs>
    <linearGradient id="linear-gradient" x1="0.5" x2="0.5" y2="1" gradientUnits="objectBoundingBox">
      <stop offset="0" stop-color="#485ef4" stop-opacity="0.102"/>
      <stop offset="0.03" stop-color="#48e7f4"/>
      <stop offset="1" stop-color="#fff" stop-opacity="0.482"/>
    </linearGradient>
    <linearGradient id="linear-gradient-2" x1="0.827" y1="0.142" x2="0.177" y2="0.835" gradientUnits="objectBoundingBox">
      <stop offset="0" stop-color="#0054e1"/>
      <stop offset="1" stop-color="#0095fd"/>
    </linearGradient>
  </defs>
  <g id="noun_Friend_2113938" transform="translate(-4.242 15.41)">
    <path id="Path_634" data-name="Path 634" d="M-3.758-11.285,99.977,4.595V89H0Z" transform="translate(8 -4.125)" fill="url(#linear-gradient)"/>
    <g id="Group_107" data-name="Group 107" transform="translate(10.907 6.875)">
      <g id="Group_110" data-name="Group 110">
        <path id="Path_617" data-name="Path 617" d="M28.978,56.41A12.893,12.893,0,1,0,16.085,43.516,12.907,12.907,0,0,0,28.978,56.41Z" transform="translate(-11.579 -9.957)" fill="#000945"/>
        <path id="Path_618" data-name="Path 618" d="M28.306,61.084c-9.593,0-17.4,10.751-17.4,23.967a1.305,1.305,0,1,0,2.611,0c0-11.775,6.635-21.356,14.788-21.356s14.788,9.581,14.788,21.356a1.305,1.305,0,1,0,2.611,0A29.056,29.056,0,0,0,40.7,68.221C37.4,63.618,33,61.084,28.306,61.084Z" transform="translate(-10.907 -13.911)" fill="#000945"/>
        <path id="Path_619" data-name="Path 619" d="M64.177,32.66A12.893,12.893,0,1,0,51.283,19.766,12.906,12.906,0,0,0,64.177,32.66Z" transform="translate(-13.147 -5.875)" fill="url(#linear-gradient-2)"/>
        <path id="Path_620" data-name="Path 620" d="M63.5,37.334c-9.594,0-17.4,10.751-17.4,23.967a1.305,1.305,0,1,0,2.611,0c0-11.775,6.634-21.356,14.788-21.356S78.292,49.526,78.292,61.3a1.305,1.305,0,1,0,2.611,0C80.9,48.085,73.1,37.334,63.5,37.334Z" transform="translate(-12.475 -9.828)" fill="#000945"/>
      </g>
    </g>
  </g>
</svg>
