<svg xmlns="http://www.w3.org/2000/svg" width="26.454" height="42.485" viewBox="0 0 26.454 42.485">
  <g id="noun_auditorium_502119" transform="translate(-29.001 -17)">
    <g id="Group_8" data-name="Group 8" transform="translate(55.455 17) rotate(90)">
      <circle id="Ellipse_7" data-name="Ellipse 7" cx="5.212" cy="5.212" r="5.212" transform="translate(16.031 16.031)"/>
      <circle id="Ellipse_8" data-name="Ellipse 8" cx="1.955" cy="1.955" r="1.955" transform="translate(8.922 19.288)"/>
      <circle id="Ellipse_9" data-name="Ellipse 9" cx="1.955" cy="1.955" r="1.955" transform="translate(0 19.288)"/>
      <circle id="Ellipse_10" data-name="Ellipse 10" cx="1.955" cy="1.955" r="1.955" transform="translate(29.654 19.288)"/>
      <circle id="Ellipse_11" data-name="Ellipse 11" cx="1.955" cy="1.955" r="1.955" transform="translate(38.576 19.288)"/>
      <circle id="Ellipse_12" data-name="Ellipse 12" cx="1.955" cy="1.955" r="1.955" transform="translate(19.288)"/>
      <circle id="Ellipse_13" data-name="Ellipse 13" cx="1.955" cy="1.955" r="1.955" transform="translate(19.288 8.014)"/>
      <circle id="Ellipse_14" data-name="Ellipse 14" cx="1.955" cy="1.955" r="1.955" transform="translate(26.979 11.597)"/>
      <circle id="Ellipse_15" data-name="Ellipse 15" cx="1.955" cy="1.955" r="1.955" transform="translate(11.532 11.597)"/>
      <circle id="Ellipse_16" data-name="Ellipse 16" cx="1.955" cy="1.955" r="1.955" transform="translate(5.929 5.02)"/>
      <circle id="Ellipse_17" data-name="Ellipse 17" cx="1.955" cy="1.955" r="1.955" transform="translate(33.556 5.929)"/>
      <circle id="Ellipse_18" data-name="Ellipse 18" cx="1.955" cy="1.955" r="1.955" transform="translate(1.564 11.535)"/>
      <circle id="Ellipse_19" data-name="Ellipse 19" cx="1.955" cy="1.955" r="1.955" transform="translate(37.013 11.535)"/>
      <circle id="Ellipse_20" data-name="Ellipse 20" cx="1.955" cy="1.955" r="1.955" transform="translate(11.535 1.498)"/>
      <circle id="Ellipse_21" data-name="Ellipse 21" cx="1.955" cy="1.955" r="1.955" transform="translate(27.041 1.498)"/>
    </g>
  </g>
</svg>
